#!OML:ASF E:\Mandelcareful walks\Project 1\Capture day 1\Session 1\Subject1.ASF
:FULLY-SPECIFIED
:DEGREES
523
root 6.6887 15.7391 -2.73345 -65.4116 -82.3468 71.2949
lowerback 30.9937 2.04343 -1.29322
upperback 7.46445 1.25227 -2.18547
thorax -8.52696 0.313692 -2.14066
lowerneck -24.6531 12.0243 5.86893
upperneck 29.3663 18.9516 -11.4743
head 16.529 6.81746 -1.69221
rclavicle -1.66979e-014 -2.62396e-014
rhumerus -19.7868 -2.91002 -86.3163
rradius 77.6998
rwrist -14.1817
rhand -12.2706 -29.3724
rfingers 7.12502
rthumb 13.7962 -58.8949
lclavicle -1.66979e-014 -2.62396e-014
lhumerus -15.2349 -15.3564 89.5333
lradius 73.1851
lwrist 10.8723
lhand -21.4256 -13.5335
lfingers 7.12502
lthumb 4.96339 16.3883
rfemur -29.0243 -15.1481 6.20941
rtibia 54.2286
rfoot -23.9525 -8.14201
rtoes -4.51152
lfemur -33.7096 10.5793 -14.3797
ltibia 46.4843
lfoot -12.1511 0.59935
ltoes -7.78711
524
root 6.6811 15.7422 -2.73174 -66.2148 -82.3329 72.0655
lowerback 31.0131 2.06239 -1.33393
upperback 7.45151 1.26077 -2.20098
thorax -8.55136 0.317875 -2.13862
lowerneck -24.4629 12.0633 6.0601
upperneck 29.287 19.001 -11.688
head 16.5126 6.84193 -1.80627
rclavicle 4.05521e-014 -1.63003e-014
rhumerus -19.8906 -2.91867 -86.3077
rradius 77.7776
rwrist -14.1852
rhand -12.2801 -29.9057
rfingers 7.12502
rthumb 13.787 -59.4289
lclavicle 4.05521e-014 -1.63003e-014
lhumerus -15.3205 -15.4611 89.6031
lradius 73.2007
lwrist 10.8531
lhand -21.4898 -13.5588
lfingers 7.12502
lthumb 4.90144 16.3645
rfemur -28.9603 -15.1232 6.13494
rtibia 54.1623
rfoot -23.8477 -8.04131
rtoes -4.32362
lfemur -33.5676 10.6146 -14.422
ltibia 46.4279
lfoot -12.149 0.705067
ltoes -7.39931
525
root 6.67789 15.7455 -2.73023 -66.4943 -82.3737 72.4019
lowerback 30.9284 2.051 -1.36123
upperback 7.43305 1.24624 -2.17715
thorax -8.53394 0.312939 -2.0886
lowerneck -24.2688 12.1254 6.25387
upperneck 29.1547 19.1016 -11.9694
head 16.488 6.88138 -1.9355
rclavicle 1.59028e-014 8.34896e-015
rhumerus -19.864 -2.85381 -86.3215
rradius 77.661
rwrist -14.1567
rhand -12.4291 -29.6362
rfingers 7.12502
rthumb 13.6435 -59.169
lclavicle 1.59028e-014 8.34896e-015
lhumerus -15.4365 -15.4904 89.689
lradius 73.2127
lwrist 10.8484
lhand -21.4877 -13.8302
lfingers 7.12502
lthumb 4.9034 16.0931
rfemur -29.0001 -15.055 6.17162
rtibia 54.0871
rfoot -23.7658 -8.0517
rtoes -3.87754
lfemur -33.5758 10.6649 -14.4096
ltibia 46.4049
lfoot -12.1675 0.740957
ltoes -7.38125
526
root 6.67851 15.7513 -2.72664 -67.002 -82.44 73.0266
lowerback 30.8206 2.04847 -1.42011
upperback 7.41279 1.23703 -2.13039
thorax -8.50874 0.311278 -1.99582
lowerneck -24.2027 12.1954 6.25983
upperneck 29.0479 19.2264 -12.0724
head 16.4544 6.92844 -1.94935
rclavicle 1.94809e-014 -3.26007e-014
rhumerus -19.7375 -2.68918 -86.3179
rradius 77.4068
rwrist -14.154
rhand -12.6998 -29.0312
rfingers 7.12502
rthumb 13.3826 -58.5814
lclavicle 1.94809e-014 -3.26007e-014
lhumerus -15.433 -15.4318 89.7555
lradius 73.1539
lwrist 10.7239
lhand -21.39 -14.0923
lfingers 7.12502
lthumb 4.9978 15.8288
rfemur -29.1352 -14.9604 6.24609
rtibia 54.0098
rfoot -23.7016 -8.15278
rtoes -3.85133
lfemur -33.7218 10.7421 -14.3992
ltibia 46.4191
lfoot -12.1981 0.737381
ltoes -7.80104
527
root 6.68488 15.7567 -2.72278 -67.6262 -82.5899 73.7262
lowerback 30.8701 2.0698 -1.41074
upperback 7.3605 1.27207 -2.08735
thorax -8.59204 0.328407 -1.96812
lowerneck -24.2314 12.2674 6.26566
upperneck 29.0721 19.3214 -12.0338
head 16.4785 6.97048 -1.90891
rclavicle 7.55382e-015 1.94809e-014
rhumerus -19.7298 -2.66931 -86.3026
rradius 77.3605
rwrist -14.3912
rhand -12.7256 -28.8684
rfingers 7.12502
rthumb 13.3577 -58.4202
lclavicle 7.55382e-015 1.94809e-014
lhumerus -15.3993 -15.4629 89.7708
lradius 73.1001
lwrist 10.6232
lhand -21.4156 -14.1008
lfingers 7.12502
lthumb 4.97303 15.8209
rfemur -29.259 -14.7928 6.4115
rtibia 53.9017
rfoot -23.6237 -8.26572
rtoes -4.25213
lfemur -33.8662 10.8432 -14.2829
ltibia 46.4507
lfoot -12.1213 0.748975
ltoes -7.73843
528
root 6.69051 15.7607 -2.71904 -68.5586 -82.7742 74.6133
lowerback 31.058 2.12052 -1.41291
upperback 7.30684 1.33417 -2.03398
thorax -8.74273 0.356575 -1.93592
lowerneck -24.2313 12.3084 6.29682
upperneck 29.176 19.3607 -11.9668
head 16.5268 6.99239 -1.87739
rclavicle -1.27222e-014 4.25399e-014
rhumerus -19.8575 -2.80522 -86.2801
rradius 77.5249
rwrist -14.7198
rhand -12.5146 -28.9863
rfingers 7.12502
rthumb 13.5611 -58.5246
lclavicle -1.27222e-014 4.25399e-014
lhumerus -15.4538 -15.5631 89.7716
lradius 73.1442
lwrist 10.729
lhand -21.519 -13.8997
lfingers 7.12502
lthumb 4.87322 16.0242
rfemur -29.2581 -14.544 6.57479
rtibia 53.8285
rfoot -23.5701 -8.28942
rtoes -4.12885
lfemur -33.8481 11.0083 -14.1174
ltibia 46.4866
lfoot -12.0454 0.745401
ltoes -7.55476
529
root 6.67635 15.7707 -2.69922 -71.5004 -82.7522 77.4359
lowerback 31.1061 2.22049 -1.53048
upperback 7.34895 1.40644 -2.10296
thorax -8.71687 0.388294 -1.97299
lowerneck -24.1823 12.314 6.33521
upperneck 29.1797 19.3515 -11.9607
head 16.5201 6.99605 -1.88535
rclavicle -7.55382e-015 1.31198e-014
rhumerus -19.9848 -2.97895 -86.3262
rradius 77.7516
rwrist -14.7736
rhand -12.4814 -28.9777
rfingers 7.12502
rthumb 13.5931 -58.5139
lclavicle -7.55382e-015 1.31198e-014
lhumerus -15.5085 -15.6853 89.7246
lradius 73.284
lwrist 10.9366
lhand -21.4558 -13.5598
lfingers 7.12502
lthumb 4.93424 16.3627
rfemur -29.1179 -14.3138 6.30926
rtibia 53.7414
rfoot -23.4933 -8.11178
rtoes -3.91105
lfemur -33.5901 11.0874 -14.2914
ltibia 46.5169
lfoot -12.261 0.983695
ltoes -7.89755
530
root 6.68788 15.7671 -2.69324 -70.4956 -82.51 76.6115
lowerback 31.0755 2.18913 -1.69768
upperback 7.28909 1.31477 -2.1638
thorax -8.77556 0.350442 -1.91183
lowerneck -24.1018 12.2906 6.38855
upperneck 29.0998 19.2729 -11.9324
head 16.454 6.98478 -1.9034
rclavicle 1.19271e-014 2.66371e-014
rhumerus -20.0927 -3.24732 -86.4519
rradius 77.9738
rwrist -14.659
rhand -12.5452 -29.2318
rfingers 7.12502
rthumb 13.5316 -58.7721
lclavicle 1.19271e-014 2.66371e-014
lhumerus -15.5406 -15.8882 89.644
lradius 73.4528
lwrist 11.059
lhand -21.3874 -13.5224
lfingers 7.12502
lthumb 5.00032 16.3986
rfemur -29.323 -14.4922 6.10784
rtibia 53.7601
rfoot -23.4438 -8.16101
rtoes -4.2619
lfemur -33.9173 11.0432 -14.5859
ltibia 46.5682
lfoot -12.2038 0.929588
ltoes -7.70151
531
root 6.6873 15.7607 -2.67989 -69.533 -82.538 75.6132
lowerback 31.1211 2.10961 -1.63688
upperback 7.28916 1.23726 -2.11675
thorax -8.79851 0.313517 -1.86597
lowerneck -23.9575 12.2783 6.29874
upperneck 29.0544 19.2284 -11.7868
head 16.3573 6.98967 -1.84627
rclavicle -1.51076e-014 3.57812e-014
rhumerus -20.1081 -3.16945 -86.5065
rradius 77.8496
rwrist -14.52
rhand -12.7035 -29.4961
rfingers 7.12502
rthumb 13.379 -59.0465
lclavicle -1.51076e-014 3.57812e-014
lhumerus -15.5916 -15.8256 89.6712
lradius 73.5822
lwrist 11.0604
lhand -21.4052 -14.0503
lfingers 7.12502
lthumb 4.98312 15.8711
rfemur -29.2368 -14.5879 6.11532
rtibia 53.7578
rfoot -23.4884 -8.18858
rtoes -4.64369
lfemur -33.9477 10.9942 -14.5368
ltibia 46.6548
lfoot -12.1699 0.854175
ltoes -7.19874
532
root 6.67671 15.7546 -2.65761 -69.6448 -82.7824 75.6413
lowerback 31.0637 2.0127 -1.54669
upperback 7.34541 1.15975 -1.96325
thorax -8.71002 0.275382 -1.71235
lowerneck -23.8972 12.354 6.09991
upperneck 29.0871 19.3873 -11.694
head 16.3388 7.04653 -1.7421
rclavicle 2.06736e-014 1.31198e-014
rhumerus -19.9806 -2.69015 -86.4776
rradius 77.5501
rwrist -14.4322
rhand -12.8621 -29.3447
rfingers 7.12502
rthumb 13.2261 -58.9051
lclavicle 2.06736e-014 1.31198e-014
lhumerus -15.5156 -15.4436 89.7617
lradius 73.5265
lwrist 11.0104
lhand -21.3051 -14.4813
lfingers 7.12502
lthumb 5.07974 15.4378
rfemur -29.1277 -14.5142 6.26247
rtibia 53.7678
rfoot -23.5488 -8.13247
rtoes -4.53203
lfemur -33.846 11.0203 -14.3151
ltibia 46.7837
lfoot -12.2989 0.862504
ltoes -7.21748
533
root 6.66931 15.7522 -2.63179 -71.2095 -82.9816 77.2721
lowerback 30.8599 2.01414 -1.57675
upperback 7.41536 1.16543 -1.88406
thorax -8.53565 0.277815 -1.60078
lowerneck -23.9999 12.4607 6.10372
upperneck 29.1063 19.5828 -11.7911
head 16.4124 7.10466 -1.72938
rclavicle 5.56597e-015 -1.03368e-014
rhumerus -19.7751 -2.48981 -86.5191
rradius 77.4963
rwrist -14.4402
rhand -12.7538 -29.2533
rfingers 7.12502
rthumb 13.3305 -58.8069
lclavicle 5.56597e-015 -1.03368e-014
lhumerus -15.2335 -15.3232 89.7109
lradius 73.2659
lwrist 10.915
lhand -21.2128 -14.548
lfingers 7.12502
lthumb 5.16885 15.369
rfemur -29.2388 -14.3422 6.33961
rtibia 53.7402
rfoot -23.4939 -8.05775
rtoes -4.32666
lfemur -33.8889 11.1442 -14.2459
ltibia 46.9357
lfoot -12.5097 0.932565
ltoes -7.33785
534
root 6.66434 15.7544 -2.6058 -72.6451 -83.0447 78.8119
lowerback 30.7638 2.07538 -1.6124
upperback 7.38656 1.2337 -1.91802
thorax -8.52173 0.311445 -1.642
lowerneck -24.0221 12.4914 6.33632
upperneck 29.1636 19.5646 -11.8414
head 16.481 7.11019 -1.78897
rclavicle 2.06736e-014 2.38542e-015
rhumerus -19.8035 -2.7199 -86.6159
rradius 77.5781
rwrist -14.3675
rhand -12.5304 -29.2709
rfingers 7.12502
rthumb 13.5459 -58.8103
lclavicle 2.06736e-014 2.38542e-015
lhumerus -15.1377 -15.5774 89.6224
lradius 73.1399
lwrist 10.8188
lhand -21.2033 -14.3292
lfingers 7.12502
lthumb 5.17802 15.5875
rfemur -29.3494 -14.2779 6.29397
rtibia 53.6626
rfoot -23.3826 -8.07553
rtoes -4.60588
lfemur -33.9918 11.2782 -14.3345
ltibia 47.0967
lfoot -12.6759 0.940216
ltoes -7.26797
535
root 6.66198 15.7539 -2.58133 -73.091 -83.2334 79.2519
lowerback 30.9753 2.08485 -1.48831
upperback 7.24901 1.28429 -1.89831
thorax -8.77622 0.335364 -1.71893
lowerneck -23.9406 12.4371 6.36478
upperneck 29.3088 19.4051 -11.6057
head 16.4769 7.07765 -1.74114
rclavicle 4.77083e-015 2.34566e-014
rhumerus -20.0551 -2.91901 -86.6583
rradius 77.5959
rwrist -14.3183
rhand -12.4514 -29.2698
rfingers 7.12502
rthumb 13.622 -58.8041
lclavicle 4.77083e-015 2.34566e-014
lhumerus -15.3692 -15.7161 89.6544
lradius 73.297
lwrist 10.7865
lhand -21.2046 -14.1195
lfingers 7.12502
lthumb 5.17678 15.7973
rfemur -29.3124 -14.1871 6.40118
rtibia 53.5317
rfoot -23.2759 -8.14971
rtoes -4.79026
lfemur -34.0286 11.4042 -14.2303
ltibia 47.2626
lfoot -12.776 0.891999
ltoes -7.12233
536
root 6.65889 15.7585 -2.55386 -74.5442 -83.4585 80.5649
lowerback 31.2081 2.08693 -1.45388
upperback 7.22478 1.29295 -1.83053
thorax -8.91546 0.336461 -1.67168
lowerneck -23.8075 12.4336 6.30968
upperneck 29.2631 19.3998 -11.5708
head 16.4108 7.08418 -1.72603
rclavicle 1.23246e-014 -1.07344e-014
rhumerus -20.1237 -2.75767 -86.7184
rradius 77.5831
rwrist -14.3739
rhand -12.6811 -29.2256
rfingers 7.12502
rthumb 13.4006 -58.7746
lclavicle 1.23246e-014 -1.07344e-014
lhumerus -15.4472 -15.5416 89.6419
lradius 73.4077
lwrist 10.7167
lhand -21.1825 -14.212
lfingers 7.12502
lthumb 5.19815 15.7042
rfemur -29.1238 -13.9174 6.48221
rtibia 53.3482
rfoot -23.1721 -8.13574
rtoes -4.7388
lfemur -33.9193 11.5347 -14.0817
ltibia 47.4357
lfoot -12.9004 0.952154
ltoes -7.26768
